<?xml version="1.0" encoding="UTF-8" standalone="no" ?>
<!DOCTYPE svg PUBLIC "-//W3C//DTD SVG 1.1//EN" "http://www.w3.org/Graphics/SVG/1.1/DTD/svg11.dtd">
<svg xmlns="http://www.w3.org/2000/svg" xmlns:xlink="http://www.w3.org/1999/xlink" version="1.1" width="80" height="80" viewBox="0 0 80 80" xml:space="preserve">
<desc>Created with Fabric.js 3.6.3</desc>
<defs>
</defs>
<rect x="0" y="0" width="100%" height="100%" fill="rgba(255, 255, 255, 0)"></rect>
<g transform="matrix(1 0 0 1 -168.95 123.5)"  >
<g style=""   >
		<g transform="matrix(1 0 0 1 -232.86 104.5)"  >
<path style="stroke: none; stroke-width: 1; stroke-dasharray: none; stroke-linecap: butt; stroke-dashoffset: 0; stroke-linejoin: miter; stroke-miterlimit: 4; fill: rgb(0,0,0); fill-rule: nonzero; opacity: 1;"  transform=" translate(-429.19, -350)" d="M 430.742 360 V 350.877 H 433.804 L 434.262 347.322 H 430.742 V 345.052 C 430.742 344.022 431.027 343.321 432.504 343.321 L 434.386 343.32 V 340.14 C 433.475 340.044 432.559 339.997 431.643 340 C 428.929 340 427.07 341.657 427.07 344.7 V 347.322 H 424 V 350.877 H 427.07 V 360 L 430.742 360 Z" stroke-linecap="round" />
</g>
		<g transform="matrix(1 0 0 1 -165.05 104.5)"  >
<path style="stroke: none; stroke-width: 1; stroke-dasharray: none; stroke-linecap: butt; stroke-dashoffset: 0; stroke-linejoin: miter; stroke-miterlimit: 4; fill: rgb(0,0,0); fill-rule: nonzero; opacity: 1;"  transform=" translate(-497, -350)" d="M 508 343.157 C 507.173 343.517 506.299 343.755 505.404 343.864 C 506.348 343.297 507.055 342.406 507.395 341.354 C 506.508 341.885 505.537 342.259 504.524 342.46 C 503.847 341.722 502.945 341.231 501.961 341.064 C 500.976 340.896 499.964 341.062 499.083 341.535 C 498.202 342.008 497.503 342.761 497.094 343.677 C 496.685 344.593 496.59 345.619 496.824 346.595 C 495.03 346.504 493.276 346.034 491.675 345.217 C 490.073 344.4 488.661 343.253 487.529 341.852 C 487.132 342.549 486.923 343.338 486.924 344.14 C 486.923 344.886 487.105 345.62 487.454 346.278 C 487.803 346.936 488.309 347.497 488.926 347.91 C 488.209 347.891 487.507 347.697 486.88 347.347 V 347.402 C 486.885 348.447 487.25 349.457 487.911 350.263 C 488.572 351.069 489.491 351.62 490.51 351.824 C 490.118 351.944 489.71 352.007 489.3 352.012 C 489.016 352.009 488.733 351.983 488.453 351.935 C 488.743 352.833 489.305 353.619 490.06 354.181 C 490.815 354.744 491.726 355.056 492.666 355.075 C 491.079 356.33 489.119 357.015 487.1 357.02 C 486.732 357.022 486.365 356.999 486 356.954 C 488.062 358.292 490.465 359.002 492.919 358.999 C 494.613 359.017 496.293 358.695 497.861 358.053 C 499.43 357.411 500.856 356.461 502.055 355.259 C 503.254 354.056 504.203 352.626 504.846 351.051 C 505.489 349.476 505.813 347.789 505.8 346.086 C 505.8 345.898 505.8 345.699 505.8 345.5 C 506.663 344.853 507.408 344.06 508 343.157 V 343.157 Z" stroke-linecap="round" />
</g>
		<g transform="matrix(1 0 0 1 -89.05 104.5)"  >
<path style="stroke: none; stroke-width: 1; stroke-dasharray: none; stroke-linecap: butt; stroke-dashoffset: 0; stroke-linejoin: miter; stroke-miterlimit: 4; fill: rgb(0,0,0); fill-rule: nonzero; opacity: 1;"  transform=" translate(-573, -350)" d="M 585.994 347.344 C 586.052 345.678 585.683 344.025 584.919 342.538 C 584.401 341.928 583.682 341.516 582.888 341.374 C 579.601 341.081 576.302 340.96 573.002 341.014 C 569.715 340.958 566.427 341.074 563.152 341.363 C 562.505 341.479 561.905 341.778 561.428 342.224 C 560.365 343.19 560.247 344.842 560.129 346.238 C 559.957 348.749 559.957 351.268 560.129 353.779 C 560.163 354.565 560.281 355.345 560.483 356.106 C 560.625 356.694 560.913 357.237 561.321 357.688 C 561.802 358.158 562.416 358.474 563.081 358.596 C 565.627 358.906 568.193 359.034 570.758 358.98 C 574.892 359.038 578.518 358.98 582.805 358.654 C 583.487 358.54 584.118 358.223 584.612 357.747 C 584.943 357.421 585.19 357.022 585.333 356.583 C 585.755 355.306 585.962 353.97 585.947 352.627 C 585.994 351.975 585.994 348.042 585.994 347.344 Z M 570.333 353.325 V 346.122 L 577.325 349.741 C 575.364 350.811 572.778 352.022 570.333 353.325 Z" stroke-linecap="round" />
</g>
		<g transform="matrix(1 0 0 1 -181.55 -84)"  >
<path style="stroke: none; stroke-width: 1; stroke-dasharray: none; stroke-linecap: butt; stroke-dashoffset: 0; stroke-linejoin: miter; stroke-miterlimit: 4; fill: rgb(0,0,0); fill-rule: nonzero; opacity: 1;"  transform=" translate(-480.5, -161.5)" d="M 483.562 167.6 H 471.312 C 470.5 167.6 469.721 167.921 469.147 168.493 C 468.573 169.065 468.25 169.841 468.25 170.65 C 468.25 171.459 468.573 172.235 469.147 172.807 C 469.721 173.379 470.5 173.7 471.312 173.7 H 483.562 C 484.375 173.7 485.154 173.379 485.728 172.807 C 486.302 172.235 486.625 171.459 486.625 170.65 C 486.625 169.841 486.302 169.065 485.728 168.493 C 485.154 167.921 484.375 167.6 483.562 167.6 Z M 495.812 137.1 H 492.199 C 491.567 135.32 490.398 133.779 488.852 132.686 C 487.305 131.594 485.458 131.005 483.562 131 H 477.438 C 475.542 131.005 473.695 131.594 472.148 132.686 C 470.602 133.779 469.433 135.32 468.801 137.1 H 465.188 C 462.751 137.1 460.414 138.064 458.691 139.78 C 456.968 141.496 456 143.823 456 146.25 V 182.85 C 456 185.277 456.968 187.604 458.691 189.32 C 460.414 191.036 462.751 192 465.188 192 H 495.812 C 498.249 192 500.586 191.036 502.309 189.32 C 504.032 187.604 505 185.277 505 182.85 V 146.25 C 505 143.823 504.032 141.496 502.309 139.78 C 500.586 138.064 498.249 137.1 495.812 137.1 V 137.1 Z M 474.375 140.15 C 474.375 139.341 474.698 138.565 475.272 137.993 C 475.846 137.421 476.625 137.1 477.438 137.1 H 483.562 C 484.375 137.1 485.154 137.421 485.728 137.993 C 486.302 138.565 486.625 139.341 486.625 140.15 V 143.2 H 474.375 V 140.15 Z M 498.875 182.85 C 498.875 183.659 498.552 184.435 497.978 185.007 C 497.404 185.579 496.625 185.9 495.812 185.9 H 465.188 C 464.375 185.9 463.596 185.579 463.022 185.007 C 462.448 184.435 462.125 183.659 462.125 182.85 V 146.25 C 462.125 145.441 462.448 144.665 463.022 144.093 C 463.596 143.521 464.375 143.2 465.188 143.2 H 468.25 V 146.25 C 468.25 147.059 468.573 147.835 469.147 148.407 C 469.721 148.979 470.5 149.3 471.312 149.3 H 489.688 C 490.5 149.3 491.279 148.979 491.853 148.407 C 492.427 147.835 492.75 147.059 492.75 146.25 V 143.2 H 495.812 C 496.625 143.2 497.404 143.521 497.978 144.093 C 498.552 144.665 498.875 145.441 498.875 146.25 V 182.85 Z M 489.688 155.4 H 471.312 C 470.5 155.4 469.721 155.721 469.147 156.293 C 468.573 156.865 468.25 157.641 468.25 158.45 C 468.25 159.259 468.573 160.035 469.147 160.607 C 469.721 161.179 470.5 161.5 471.312 161.5 H 489.688 C 490.5 161.5 491.279 161.179 491.853 160.607 C 492.427 160.035 492.75 159.259 492.75 158.45 C 492.75 157.641 492.427 156.865 491.853 156.293 C 491.279 155.721 490.5 155.4 489.688 155.4 Z" stroke-linecap="round" />
</g>
		<g transform="matrix(1 0 0 1 197.88 -91.57)"  >
<path style="stroke: none; stroke-width: 1; stroke-dasharray: none; stroke-linecap: butt; stroke-dashoffset: 0; stroke-linejoin: miter; stroke-miterlimit: 4; fill: rgb(255,51,67); fill-rule: nonzero; opacity: 1;"  transform=" translate(-859.93, -153.93)" d="M 882.247 143.516 L 870.446 131.61 C 870.25 131.415 870.017 131.261 869.761 131.156 C 869.504 131.051 869.23 130.998 868.953 131 C 868.401 131.002 867.872 131.221 867.481 131.61 L 837.612 161.374 C 837.22 161.768 837 162.301 837 162.857 C 837 163.412 837.22 163.946 837.612 164.34 L 849.517 176.245 C 849.714 176.44 849.947 176.594 850.203 176.699 C 850.459 176.804 850.734 176.857 851.011 176.855 C 851.562 176.853 852.091 176.634 852.483 176.245 L 858.436 170.292 L 876.294 152.434 L 882.247 146.481 C 882.639 146.087 882.859 145.554 882.859 144.998 C 882.859 144.443 882.639 143.91 882.247 143.516 V 143.516 Z M 874.801 147.975 L 873.307 146.481 C 872.913 146.09 872.38 145.87 871.824 145.87 C 871.269 145.87 870.735 146.09 870.341 146.481 C 870.144 146.677 869.988 146.91 869.881 147.166 C 869.774 147.422 869.719 147.697 869.719 147.975 C 869.719 148.253 869.774 148.527 869.881 148.784 C 869.988 149.04 870.144 149.273 870.341 149.468 L 871.835 150.962 L 868.848 153.928 L 864.389 149.468 C 863.986 149.124 863.469 148.944 862.939 148.964 C 862.41 148.985 861.908 149.204 861.533 149.579 C 861.158 149.953 860.939 150.455 860.918 150.985 C 860.898 151.514 861.078 152.032 861.423 152.434 L 865.882 156.893 L 862.895 159.88 L 861.423 158.387 C 861.027 157.991 860.489 157.768 859.929 157.768 C 859.369 157.768 858.832 157.991 858.436 158.387 C 858.04 158.783 857.817 159.32 857.817 159.88 C 857.817 160.441 858.04 160.978 858.436 161.374 L 859.929 162.846 L 856.963 165.833 L 852.483 161.374 C 852.089 160.982 851.556 160.762 851 160.762 C 850.444 160.762 849.911 160.982 849.517 161.374 C 849.125 161.768 848.906 162.301 848.906 162.857 C 848.906 163.412 849.125 163.946 849.517 164.34 L 853.976 168.799 L 851.011 171.786 L 842.071 162.846 L 868.848 136.069 L 877.788 145.009 L 874.801 147.975 Z" stroke-linecap="round" />
</g>
		<g transform="matrix(1 0 0 1 217.02 -74.53)"  >
<path style="stroke: none; stroke-width: 1; stroke-dasharray: none; stroke-linecap: butt; stroke-dashoffset: 0; stroke-linejoin: miter; stroke-miterlimit: 4; fill: rgb(255,51,67); fill-rule: nonzero; opacity: 1;"  transform=" translate(-879.07, -170.97)" d="M 860.138 192 H 898 C 898.558 192 899.093 191.778 899.487 191.384 C 899.882 190.989 900.104 190.454 900.104 189.897 V 152.034 C 900.104 151.477 899.882 150.942 899.487 150.547 C 899.093 150.153 898.558 149.931 898 149.931 H 885.379 C 884.822 149.931 884.286 150.153 883.892 150.547 C 883.498 150.942 883.276 151.477 883.276 152.034 V 175.172 H 860.138 C 859.58 175.172 859.045 175.394 858.651 175.788 C 858.256 176.183 858.035 176.718 858.035 177.276 V 189.897 C 858.035 190.454 858.256 190.989 858.651 191.384 C 859.045 191.778 859.58 192 860.138 192 V 192 Z M 862.241 179.379 H 866.448 V 181.483 C 866.448 182.041 866.67 182.576 867.064 182.97 C 867.459 183.365 867.994 183.586 868.552 183.586 C 869.11 183.586 869.645 183.365 870.039 182.97 C 870.434 182.576 870.655 182.041 870.655 181.483 V 179.379 H 874.862 V 181.483 C 874.862 182.041 875.084 182.576 875.478 182.97 C 875.873 183.365 876.408 183.586 876.966 183.586 C 877.523 183.586 878.058 183.365 878.453 182.97 C 878.847 182.576 879.069 182.041 879.069 181.483 V 179.379 H 883.276 V 181.483 C 883.276 182.041 883.498 182.576 883.892 182.97 C 884.286 183.365 884.822 183.586 885.379 183.586 C 885.937 183.586 886.472 183.365 886.867 182.97 C 887.261 182.576 887.483 182.041 887.483 181.483 V 179.379 H 889.586 C 890.144 179.379 890.679 179.158 891.074 178.763 C 891.468 178.369 891.69 177.834 891.69 177.276 C 891.69 176.718 891.468 176.183 891.074 175.788 C 890.679 175.394 890.144 175.172 889.586 175.172 H 887.483 V 170.966 H 889.586 C 890.144 170.966 890.679 170.744 891.074 170.349 C 891.468 169.955 891.69 169.42 891.69 168.862 C 891.69 168.304 891.468 167.769 891.074 167.375 C 890.679 166.98 890.144 166.759 889.586 166.759 H 887.483 V 162.552 H 889.586 C 890.144 162.552 890.679 162.33 891.074 161.936 C 891.468 161.541 891.69 161.006 891.69 160.448 C 891.69 159.89 891.468 159.355 891.074 158.961 C 890.679 158.566 890.144 158.345 889.586 158.345 H 887.483 V 154.138 H 895.897 V 187.793 H 862.241 V 179.379 Z" stroke-linecap="round" />
</g>
</g>
</g>
</svg>