<?xml version="1.0" encoding="UTF-8" standalone="no" ?>
<!DOCTYPE svg PUBLIC "-//W3C//DTD SVG 1.1//EN" "http://www.w3.org/Graphics/SVG/1.1/DTD/svg11.dtd">
<svg xmlns="http://www.w3.org/2000/svg" xmlns:xlink="http://www.w3.org/1999/xlink" version="1.1" width="160" height="60" viewBox="0 0 160 60" xml:space="preserve">
<desc>Created with Fabric.js 3.6.3</desc>
<defs>
</defs>
<rect x="0" y="0" width="100%" height="100%" fill="rgba(125, 99, 99, 0)"></rect>
<g transform="matrix(1 0 0 1 80 31)"  >
<g style=""   >
		<g transform="matrix(1 0 0 1 -54.01 8.03)"  >
<path style="stroke: none; stroke-width: 1; stroke-dasharray: none; stroke-linecap: butt; stroke-dashoffset: 0; stroke-linejoin: miter; stroke-miterlimit: 4; fill: #FF3343; fill-rule: nonzero; opacity: 1;"  transform=" translate(-15.99, -33.03)" d="M 0 16.9653 V 25.8874 C 3.03593 25.8852 6.04248 26.4843 8.84762 27.6503 C 11.6528 28.8163 14.2014 30.5263 16.3478 32.6825 C 18.4936 34.838 20.1954 37.397 21.3558 40.2134 C 22.5162 43.0297 23.1124 46.0481 23.1104 49.096 H 31.9884 C 31.9804 40.578 28.6078 32.4111 22.6107 26.3873 C 16.6137 20.3636 8.48197 16.9751 0 16.9653 H 0 Z" stroke-linecap="round" />
</g>
		<g transform="matrix(1 0 0 1 -30.84 -15.23)"  >
<path style="stroke: none; stroke-width: 1; stroke-dasharray: none; stroke-linecap: butt; stroke-dashoffset: 0; stroke-linejoin: miter; stroke-miterlimit: 4; fill: #FF3343; fill-rule: nonzero; opacity: 1;"  transform=" translate(-39.16, -9.77)" d="M 44.3981 0.903564 H 30.3285 C 37.4461 5.43323 43.4769 11.4889 47.9885 18.636 V 4.50662 C 47.9878 3.55079 47.6092 2.63435 46.936 1.95872 C 46.2627 1.28309 45.3499 0.903564 44.3981 0.903564 Z" stroke-linecap="round" />
</g>
		<g transform="matrix(1 0 0 1 -46.01 0)"  >
<path style="stroke: none; stroke-width: 1; stroke-dasharray: none; stroke-linecap: butt; stroke-dashoffset: 0; stroke-linejoin: miter; stroke-miterlimit: 4; fill: #FF3343; fill-rule: nonzero; opacity: 1;"  transform=" translate(-23.99, -25)" d="M 8.84006 0.903564 H 0 V 8.93655 C 10.6027 8.94763 20.768 13.1823 28.2654 20.7113 C 35.7628 28.2403 39.9798 38.4487 39.9912 49.0964 H 47.9889 V 40.2188 C 46.1806 30.4617 41.4725 21.4832 34.4845 14.4654 C 27.4964 7.44762 18.5559 2.71951 8.84006 0.903564 Z" stroke-linecap="round" />
</g>
		<g transform="matrix(1 0 0 1 -3.07 -4.53)"  >
<path style="stroke: none; stroke-width: 1; stroke-dasharray: none; stroke-linecap: butt; stroke-dashoffset: 0; stroke-linejoin: miter; stroke-miterlimit: 4; fill: #FF3343; fill-rule: nonzero; opacity: 1;"  transform=" translate(-66.93, -20.47)" d="M 69.7497 6.2085 H 64.1148 V 34.7311 H 69.7497 V 6.2085 Z" stroke-linecap="round" />
</g>
		<g transform="matrix(1 0 0 1 13.27 0.57)"  >
<path style="stroke: none; stroke-width: 1; stroke-dasharray: none; stroke-linecap: butt; stroke-dashoffset: 0; stroke-linejoin: miter; stroke-miterlimit: 4; fill: #FF3343; fill-rule: nonzero; opacity: 1;"  transform=" translate(-83.27, -25.57)" d="M 90.4682 18.5661 C 89.5301 17.7097 88.4321 17.0489 87.2378 16.6219 C 84.6722 15.7172 81.8763 15.7172 79.3108 16.6219 C 78.1159 17.0486 77.0174 17.7095 76.0791 18.5661 C 75.1588 19.4181 74.4237 20.4517 73.9196 21.6022 C 73.3986 22.8574 73.1303 24.2037 73.1303 25.5636 C 73.1303 26.9234 73.3986 28.2698 73.9196 29.5249 C 74.4218 30.6787 75.1571 31.7152 76.0791 32.5687 C 77.0158 33.4259 78.1137 34.0865 79.3082 34.5116 C 81.8735 35.4179 84.67 35.4179 87.2352 34.5116 C 88.4302 34.0865 89.5285 33.4259 90.4657 32.5687 C 91.3872 31.7149 92.1225 30.6785 92.6252 29.5249 C 93.1461 28.2698 93.4144 26.9234 93.4144 25.5636 C 93.4144 24.2037 93.1461 22.8574 92.6252 21.6022 C 92.1215 20.4521 91.3873 19.4185 90.4682 18.5661 Z M 86.5988 28.9225 C 85.6863 29.7479 84.5017 30.2047 83.2736 30.2047 C 82.0455 30.2047 80.861 29.7479 79.9485 28.9225 C 79.1816 27.9717 78.7631 26.7852 78.7631 25.5617 C 78.7631 24.3381 79.1816 23.1516 79.9485 22.2008 C 80.861 21.3754 82.0455 20.9186 83.2736 20.9186 C 84.5017 20.9186 85.6863 21.3754 86.5988 22.2008 C 87.3657 23.1516 87.7842 24.3381 87.7842 25.5617 C 87.7842 26.7852 87.3657 27.9717 86.5988 28.9225 Z" stroke-linecap="round" />
</g>
		<g transform="matrix(1 0 0 1 35.97 4.86)"  >
<path style="stroke: none; stroke-width: 1; stroke-dasharray: none; stroke-linecap: butt; stroke-dashoffset: 0; stroke-linejoin: miter; stroke-miterlimit: 4; fill: #FF3343; fill-rule: nonzero; opacity: 1;"  transform=" translate(-105.97, -29.86)" d="M 110.698 18.8105 H 110.627 C 110.367 18.4431 110.064 18.1077 109.726 17.8111 C 109.316 17.4469 108.862 17.1359 108.374 16.8853 C 107.143 16.2507 105.775 15.9272 104.391 15.943 C 103.178 15.9217 101.979 16.2005 100.898 16.7547 C 99.8914 17.2782 99.0025 18.0038 98.2865 18.8866 C 97.5564 19.7965 96.9964 20.8315 96.6335 21.9418 C 96.2475 23.0856 96.0508 24.2852 96.0513 25.4928 C 96.037 26.7892 96.2534 28.0776 96.6903 29.2975 C 97.0861 30.4108 97.7031 31.4317 98.5038 32.2982 C 99.3015 33.1461 100.27 33.814 101.344 34.2576 C 102.512 34.7357 103.764 34.9729 105.025 34.9551 C 105.958 34.9389 106.88 34.7538 107.748 34.4085 C 108.721 34.038 109.563 33.3883 110.171 32.5404 H 110.247 V 34.3159 C 110.268 34.9081 110.171 35.4986 109.961 36.0525 C 109.752 36.6064 109.434 37.1125 109.026 37.541 C 108.509 38.0006 107.904 38.3499 107.249 38.5679 C 106.593 38.7859 105.9 38.868 105.212 38.8093 C 104.121 38.8215 103.04 38.6029 102.039 38.1676 C 101.042 37.7205 100.113 37.1366 99.2766 36.4326 L 96.1586 41.106 C 97.4331 42.1369 98.9228 42.8657 100.517 43.2379 C 102.094 43.6022 103.707 43.7855 105.326 43.7846 C 108.882 43.7846 111.53 42.8854 113.27 41.087 C 115.011 39.2887 115.881 36.6541 115.882 33.1834 V 16.3958 H 110.704 L 110.698 18.8105 Z M 110.36 27.1669 C 110.137 27.7038 109.811 28.1912 109.401 28.6013 C 108.983 29.0194 108.493 29.3581 107.955 29.6006 C 107.396 29.8499 106.792 29.9786 106.18 29.9786 C 105.569 29.9786 104.964 29.8499 104.405 29.6006 C 103.874 29.3546 103.391 29.0163 102.977 28.6013 C 102.565 28.1877 102.238 27.6966 102.014 27.1561 C 101.791 26.6155 101.676 26.0361 101.676 25.451 C 101.676 24.8658 101.791 24.2864 102.014 23.7459 C 102.238 23.2053 102.565 22.7142 102.977 22.3007 C 103.391 21.8857 103.874 21.547 104.405 21.3 C 104.964 21.0517 105.569 20.9234 106.18 20.9234 C 106.791 20.9234 107.396 21.0517 107.955 21.3 C 108.493 21.5436 108.983 21.8825 109.401 22.3007 C 110.021 22.9264 110.443 23.7223 110.613 24.5882 C 110.784 25.4541 110.696 26.3513 110.36 27.1669 Z" stroke-linecap="round" />
</g>
		<g transform="matrix(1 0 0 1 59.86 0.57)"  >
<path style="stroke: none; stroke-width: 1; stroke-dasharray: none; stroke-linecap: butt; stroke-dashoffset: 0; stroke-linejoin: miter; stroke-miterlimit: 4; fill: #FF3343; fill-rule: nonzero; opacity: 1;"  transform=" translate(-129.86, -25.57)" d="M 137.051 18.5661 C 136.113 17.7097 135.015 17.0489 133.821 16.6219 C 131.255 15.7172 128.459 15.7172 125.894 16.6219 C 124.699 17.0486 123.601 17.7095 122.662 18.5661 C 121.742 19.4181 121.007 20.4517 120.503 21.6022 C 119.982 22.8574 119.713 24.2037 119.713 25.5636 C 119.713 26.9234 119.982 28.2698 120.503 29.5249 C 121.005 30.6787 121.74 31.7152 122.662 32.5687 C 123.6 33.4262 124.698 34.0868 125.894 34.5116 C 128.459 35.4179 131.256 35.4179 133.821 34.5116 C 135.016 34.0865 136.114 33.4259 137.051 32.5687 C 137.973 31.7152 138.709 30.6787 139.211 29.5249 C 139.732 28.2698 140 26.9234 140 25.5636 C 140 24.2037 139.732 22.8574 139.211 21.6022 C 138.707 20.4517 137.972 19.4181 137.051 18.5661 Z M 133.182 28.9225 C 132.269 29.7479 131.085 30.2047 129.857 30.2047 C 128.629 30.2047 127.444 29.7479 126.532 28.9225 C 125.765 27.9717 125.346 26.7852 125.346 25.5617 C 125.346 24.3381 125.765 23.1516 126.532 22.2008 C 127.444 21.3754 128.629 20.9186 129.857 20.9186 C 131.085 20.9186 132.269 21.3754 133.182 22.2008 C 133.949 23.1516 134.367 24.3381 134.367 25.5617 C 134.367 26.7852 133.949 27.9717 133.182 28.9225 Z" stroke-linecap="round" />
</g>
</g>
</g>
</svg>